<svg width="131" height="31" viewBox="0 0 131 31" fill="none" xmlns="http://www.w3.org/2000/svg">
<path d="M3.7731 13.3473C5.06224 14.6522 6.65795 15.3046 8.56022 15.3046C10.4625 15.3046 12.0582 14.6522 13.3473 13.3473C14.6365 12.0425 15.2811 10.4232 15.2811 8.48948C15.2811 6.57149 14.6365 4.96006 13.3473 3.65519C12.0582 2.35033 10.4625 1.6979 8.56022 1.6979C6.65795 1.6979 5.06224 2.35033 3.7731 3.65519C2.48396 4.96006 1.83939 6.57149 1.83939 8.48948C1.83939 10.4232 2.48396 12.0425 3.7731 13.3473ZM2.4761 2.4761C4.14255 0.825366 6.17845 0 8.58381 0C10.9892 0 13.0093 0.817506 14.6444 2.45252C16.2794 4.07181 17.0969 6.07627 17.0969 8.4659C17.0969 10.8555 16.2636 12.8757 14.5972 14.5264C12.9465 16.1615 10.9184 16.979 8.51306 16.979C6.10771 16.979 4.08753 16.1693 2.45252 14.55C0.817505 12.9307 0 10.9263 0 8.53664C0 6.14701 0.825366 4.12683 2.4761 2.4761Z" fill="black"/>
<path d="M22.0481 10.8948V16.7431H20.2795V4.73996H21.8359L21.9774 7.05098C22.8578 5.35309 24.3356 4.50414 26.4108 4.50414C27.7628 4.50414 28.8869 4.97578 29.783 5.91905C30.6791 6.86233 31.1272 8.21436 31.1272 9.97514V16.7431H29.3585V10.5411C29.3585 9.0633 29.0284 7.96282 28.3681 7.23964C27.7235 6.50074 26.906 6.13129 25.9156 6.13129C24.7836 6.13129 23.8561 6.51646 23.1329 7.2868C22.4097 8.05714 22.0481 9.25982 22.0481 10.8948Z" fill="black"/>
<path d="M34.7906 16.7431V0.235819H36.6065V16.7431H34.7906Z" fill="black"/>
<path d="M40.617 16.7431V4.73996H42.4328V16.7431H40.617ZM40.617 0.377311C40.8529 0.141491 41.1516 0.0235816 41.5131 0.0235816C41.8747 0.0235816 42.1734 0.141491 42.4093 0.377311C42.6608 0.613129 42.7866 0.911833 42.7866 1.27342C42.7866 1.63501 42.6608 1.94158 42.4093 2.19311C42.1734 2.42893 41.8747 2.54684 41.5131 2.54684C41.1516 2.54684 40.8529 2.42893 40.617 2.19311C40.3812 1.94158 40.2633 1.63501 40.2633 1.27342C40.2633 0.911833 40.3812 0.613129 40.617 0.377311Z" fill="black"/>
<path d="M48.0941 10.8948V16.7431H46.3255V4.73996H47.8819L48.0234 7.05098C48.9038 5.35309 50.3816 4.50414 52.4568 4.50414C53.8088 4.50414 54.9329 4.97578 55.829 5.91905C56.7251 6.86233 57.1732 8.21436 57.1732 9.97514V16.7431H55.4045V10.5411C55.4045 9.0633 55.0744 7.96282 54.4141 7.23964C53.7695 6.50074 52.952 6.13129 51.9616 6.13129C50.8296 6.13129 49.9021 6.51646 49.1789 7.2868C48.4557 8.05714 48.0941 9.25982 48.0941 10.8948Z" fill="black"/>
<path d="M72.0145 10.8477H61.662C61.6777 12.1525 62.1179 13.2452 62.9826 14.1255C63.863 14.9902 64.9635 15.4226 66.2841 15.4226C66.8186 15.4226 67.3295 15.3518 67.8169 15.2103C68.3043 15.0531 68.6973 14.8644 68.996 14.6444C69.3104 14.4243 69.5777 14.2042 69.7978 13.9841C70.0336 13.764 70.1987 13.5832 70.293 13.4417L70.4345 13.2059L71.5664 14.1255C71.5192 14.2042 71.4485 14.3063 71.3542 14.4321C71.2756 14.5579 71.0791 14.7858 70.7646 15.116C70.4502 15.4461 70.1043 15.737 69.727 15.9885C69.3497 16.2401 68.8388 16.468 68.1942 16.6724C67.5654 16.8768 66.8972 16.979 66.1897 16.979C64.3975 16.979 62.8961 16.3894 61.6856 15.2103C60.4908 14.0155 59.8934 12.5377 59.8934 10.7769C59.8934 9.01614 60.5065 7.53048 61.7328 6.31995C62.959 5.10941 64.4604 4.50414 66.2369 4.50414C67.8405 4.50414 69.2082 5.08583 70.3402 6.2492C71.4878 7.39685 72.0616 8.78032 72.0616 10.3996L72.0145 10.8477ZM66.2133 5.89547C65.0814 5.89547 64.0988 6.24134 63.2656 6.93307C62.4481 7.62481 61.945 8.51306 61.7564 9.59783H70.3166C70.1594 8.5445 69.6877 7.66411 68.9017 6.95666C68.1156 6.2492 67.2195 5.89547 66.2133 5.89547Z" fill="black"/>
<path d="M81.1512 6.86233C84.2954 8.08859 85.8675 9.81006 85.8675 12.0268C85.8675 13.4417 85.3173 14.6208 84.2168 15.564C83.1163 16.5073 81.6778 16.979 79.9013 16.979C79.131 16.979 78.3842 16.8925 77.661 16.7196C76.9536 16.5466 76.364 16.3422 75.8924 16.1064C75.4208 15.8706 75.0042 15.6348 74.6426 15.399C74.281 15.1474 74.0137 14.9352 73.8408 14.7623L73.605 14.5029L75.7273 12.2154C75.7745 12.2626 75.8452 12.3333 75.9396 12.4277C76.0339 12.5063 76.2304 12.6556 76.5291 12.8757C76.8278 13.0801 77.1344 13.2609 77.4488 13.4181C77.779 13.5753 78.1798 13.7247 78.6515 13.8661C79.1388 13.9919 79.6183 14.0548 80.09 14.0548C80.7031 14.0548 81.2062 13.9055 81.5992 13.6067C81.9922 13.2923 82.1888 12.8993 82.1888 12.4277C82.1888 11.8774 81.9215 11.3901 81.387 10.9656C80.8525 10.5254 79.8699 10.0144 78.4392 9.43275C75.8138 8.41087 74.5011 6.83089 74.5011 4.69279C74.5011 3.32505 75.0277 2.20098 76.0811 1.32059C77.1344 0.440195 78.5179 0 80.2315 0C80.9075 0 81.5599 0.0786062 82.1888 0.235819C82.8176 0.37731 83.3364 0.550244 83.7452 0.75462C84.1696 0.958997 84.547 1.16337 84.8771 1.36775C85.2072 1.57213 85.4431 1.74506 85.5846 1.88655L85.8204 2.12237L83.698 4.40981C83.588 4.29976 83.4386 4.16613 83.2499 4.00892C83.0613 3.83599 82.6683 3.61589 82.0709 3.34863C81.4892 3.06564 80.8918 2.92415 80.2786 2.92415C79.6183 2.92415 79.0995 3.07351 78.7222 3.37221C78.3606 3.67091 78.1798 4.01678 78.1798 4.40981C78.1798 4.89717 78.3842 5.32165 78.793 5.68323C79.2175 6.0291 80.0035 6.42213 81.1512 6.86233Z" fill="black"/>
<path d="M88.3427 16.7431V0.235819H91.7621V6.27278C92.6268 4.98364 93.8845 4.33907 95.5352 4.33907C96.8558 4.33907 97.9484 4.78712 98.8131 5.68323C99.6935 6.56362 100.134 7.78202 100.134 9.33843V16.7431H96.7143V10.4232C96.7143 9.44847 96.4942 8.71744 96.054 8.23008C95.6138 7.727 95.04 7.47546 94.3325 7.47546C93.5779 7.47546 92.9569 7.71914 92.4695 8.2065C91.9979 8.69385 91.7621 9.41703 91.7621 10.376V16.7431H88.3427Z" fill="black"/>
<path d="M108.841 13.8426C109.753 13.8426 110.507 13.536 111.105 12.9229C111.718 12.3097 112.024 11.5551 112.024 10.659C112.024 9.7629 111.718 9.00828 111.105 8.39515C110.507 7.78202 109.753 7.47546 108.841 7.47546C107.945 7.47546 107.19 7.78202 106.577 8.39515C105.98 9.00828 105.681 9.7629 105.681 10.659C105.681 11.5551 105.98 12.3097 106.577 12.9229C107.19 13.536 107.945 13.8426 108.841 13.8426ZM104.172 6.17845C105.445 4.9522 107.025 4.33907 108.912 4.33907C110.798 4.33907 112.355 4.93647 113.581 6.13129C114.823 7.31038 115.444 8.79604 115.444 10.5883C115.444 12.3805 114.807 13.8976 113.534 15.1396C112.26 16.3658 110.68 16.979 108.794 16.979C106.907 16.979 105.343 16.3815 104.101 15.1867C102.875 13.9919 102.262 12.4984 102.262 10.7062C102.262 8.91395 102.898 7.40471 104.172 6.17845Z" fill="black"/>
<path d="M124.143 13.8426C125.055 13.8426 125.81 13.536 126.407 12.9229C127.02 12.3097 127.327 11.5551 127.327 10.659C127.327 9.7629 127.02 9.00828 126.407 8.39515C125.81 7.78202 125.055 7.47546 124.143 7.47546C123.247 7.47546 122.493 7.78202 121.879 8.39515C121.282 9.00828 120.983 9.7629 120.983 10.659C120.983 11.5551 121.282 12.3097 121.879 12.9229C122.493 13.536 123.247 13.8426 124.143 13.8426ZM117.682 20.5162V4.57489H120.535L120.818 6.39069C121.809 5.02294 123.153 4.33907 124.851 4.33907C126.47 4.33907 127.854 4.94433 129.001 6.15487C130.165 7.34969 130.746 8.82749 130.746 10.5883C130.746 12.3648 130.157 13.874 128.978 15.116C127.799 16.358 126.384 16.979 124.733 16.979C123.224 16.979 122.013 16.4444 121.101 15.3754V20.5162H117.682Z" fill="black"/>
<path d="M5.65312 29.9948H1.31012V24.0339H5.56796V24.8854H2.28942V26.5119H5.14218V27.3124H2.28942V29.1433H5.65312V29.9948Z" fill="#B9202B"/>
<path d="M7.96553 29.2029C7.37511 28.6181 7.0799 27.8943 7.0799 27.0314C7.0799 26.1685 7.38079 25.4389 7.98256 24.8428C8.59002 24.2467 9.33088 23.9487 10.2052 23.9487C10.489 23.9487 10.7587 23.9828 11.0141 24.0509C11.2696 24.1133 11.4797 24.19 11.6443 24.2808C11.8146 24.3716 11.9622 24.4625 12.0871 24.5533C12.2177 24.6441 12.3114 24.7208 12.3681 24.7832L12.4533 24.8854L11.738 25.5071C11.7209 25.49 11.6982 25.4673 11.6699 25.4389C11.6471 25.4049 11.5847 25.3509 11.4825 25.2771C11.386 25.2033 11.281 25.1381 11.1674 25.0813C11.0596 25.0245 10.9176 24.9734 10.7416 24.928C10.5657 24.8769 10.3811 24.8514 10.1881 24.8514C9.58635 24.8514 9.08109 25.0586 8.67233 25.473C8.26358 25.8874 8.05921 26.4012 8.05921 27.0143C8.05921 27.6275 8.26358 28.1413 8.67233 28.5557C9.08109 28.9701 9.58635 29.1773 10.1881 29.1773C10.3868 29.1773 10.5798 29.1518 10.7672 29.1007C10.9545 29.0496 11.1078 28.99 11.227 28.9219C11.3519 28.8481 11.4598 28.7743 11.5506 28.7004C11.6471 28.6266 11.7153 28.567 11.755 28.5216C11.8004 28.4705 11.8231 28.4421 11.8231 28.4365L12.5044 29.0581C12.4817 29.0865 12.4505 29.1234 12.4107 29.1688C12.371 29.2142 12.2773 29.2965 12.1297 29.4158C11.9878 29.5293 11.8345 29.6315 11.6699 29.7223C11.5052 29.8132 11.2866 29.8955 11.0141 29.9693C10.7473 30.0431 10.4663 30.08 10.1711 30.08C9.29682 30.08 8.56163 29.7876 7.96553 29.2029Z" fill="#B9202B"/>
<path d="M16.6894 29.1773C17.2968 29.1773 17.8021 28.9701 18.2052 28.5557C18.6139 28.1413 18.8183 27.6275 18.8183 27.0143C18.8183 26.4012 18.6139 25.8874 18.2052 25.473C17.8021 25.0586 17.2968 24.8514 16.6894 24.8514C16.0876 24.8514 15.5824 25.0586 15.1736 25.473C14.7648 25.8874 14.5605 26.4012 14.5605 27.0143C14.5605 27.6275 14.7648 28.1413 15.1736 28.5557C15.5824 28.9701 16.0876 29.1773 16.6894 29.1773ZM16.7064 23.9487C17.5864 23.9487 18.3216 24.2411 18.912 24.8258C19.5024 25.4106 19.7976 26.1344 19.7976 26.9973C19.7976 27.8602 19.4967 28.5897 18.895 29.1858C18.2932 29.7819 17.5523 30.08 16.6724 30.08C15.7981 30.08 15.0629 29.7876 14.4668 29.2029C13.8764 28.6181 13.5812 27.8943 13.5812 27.0314C13.5812 26.1685 13.8821 25.4389 14.4838 24.8428C15.0913 24.2467 15.8321 23.9487 16.7064 23.9487Z" fill="#B9202B"/>
<path d="M24.4131 29.0581L22.5993 25.72V29.9948H21.6455V24.0339H22.6589L24.6941 27.8319L26.7379 24.0339H27.6917V29.9948H26.7464V25.72L24.9326 29.0581H24.4131Z" fill="#B9202B"/>
<path d="M32.6441 29.0581L30.8303 25.72V29.9948H29.8765V24.0339H30.8899L32.9252 27.8319L34.9689 24.0339H35.9227V29.9948H34.9774V25.72L33.1636 29.0581H32.6441Z" fill="#B9202B"/>
<path d="M42.4506 29.9948H38.1076V24.0339H42.3654V24.8854H39.0869V26.5119H41.9396V27.3124H39.0869V29.1433H42.4506V29.9948Z" fill="#B9202B"/>
<path d="M46.7536 24.8684H45.2804V27.0399H46.7536C47.1227 27.0399 47.415 26.9377 47.6308 26.7333C47.8522 26.529 47.9629 26.2678 47.9629 25.9499C47.9629 25.632 47.8522 25.3737 47.6308 25.175C47.415 24.9706 47.1227 24.8684 46.7536 24.8684ZM44.3011 29.9948V24.0339H46.8729C47.486 24.0339 47.9827 24.2098 48.3631 24.5618C48.7492 24.9081 48.9422 25.3566 48.9422 25.9073C48.9422 26.3331 48.8173 26.7078 48.5675 27.0314C48.3234 27.3493 47.9913 27.565 47.5711 27.6786L49.1976 29.9948H48.048L46.5407 27.8063H45.2804V29.9948H44.3011Z" fill="#B9202B"/>
<path d="M51.4222 29.2029C50.8318 28.6181 50.5366 27.8943 50.5366 27.0314C50.5366 26.1685 50.8375 25.4389 51.4393 24.8428C52.0467 24.2467 52.7876 23.9487 53.6619 23.9487C53.9457 23.9487 54.2154 23.9828 54.4709 24.0509C54.7263 24.1133 54.9364 24.19 55.101 24.2808C55.2713 24.3716 55.4189 24.4625 55.5438 24.5533C55.6744 24.6441 55.7681 24.7208 55.8248 24.7832L55.91 24.8854L55.1947 25.5071C55.1777 25.49 55.1549 25.4673 55.1266 25.4389C55.1039 25.4049 55.0414 25.3509 54.9392 25.2771C54.8427 25.2033 54.7377 25.1381 54.6241 25.0813C54.5163 25.0245 54.3743 24.9734 54.1984 24.928C54.0224 24.8769 53.8379 24.8514 53.6448 24.8514C53.0431 24.8514 52.5378 25.0586 52.129 25.473C51.7203 25.8874 51.5159 26.4012 51.5159 27.0143C51.5159 27.6275 51.7203 28.1413 52.129 28.5557C52.5378 28.9701 53.0431 29.1773 53.6448 29.1773C53.8435 29.1773 54.0366 29.1518 54.2239 29.1007C54.4112 29.0496 54.5645 28.99 54.6837 28.9219C54.8086 28.8481 54.9165 28.7743 55.0073 28.7004C55.1039 28.6266 55.172 28.567 55.2117 28.5216C55.2571 28.4705 55.2798 28.4421 55.2798 28.4365L55.9611 29.0581C55.9384 29.0865 55.9072 29.1234 55.8674 29.1688C55.8277 29.2142 55.734 29.2965 55.5864 29.4158C55.4445 29.5293 55.2912 29.6315 55.1266 29.7223C54.9619 29.8132 54.7434 29.8955 54.4709 29.9693C54.204 30.0431 53.923 30.08 53.6278 30.08C52.7535 30.08 52.0183 29.7876 51.4222 29.2029Z" fill="#B9202B"/>
<path d="M61.9793 29.9948H57.6363V24.0339H61.8941V24.8854H58.6156V26.5119H61.4684V27.3124H58.6156V29.1433H61.9793V29.9948Z" fill="#B9202B"/>
<path d="M68.9447 25.1579L67.8973 27.7297H69.9837L68.9447 25.1579ZM69.4642 24.0339L71.9508 29.9948H70.8778L70.2732 28.5046H67.6248L67.0202 29.9948H65.9898L68.4849 24.0339H69.4642Z" fill="#B9202B"/>
<path d="M75.8074 24.8684H74.3938V27.1421H75.8074C76.1878 27.1421 76.4943 27.0371 76.7271 26.827C76.9599 26.6113 77.0762 26.3388 77.0762 26.0095C77.0762 25.6802 76.9599 25.4077 76.7271 25.192C76.4943 24.9763 76.1878 24.8684 75.8074 24.8684ZM73.4145 29.9948V24.0339H75.9096C76.5511 24.0339 77.0677 24.2155 77.4594 24.5789C77.8568 24.9422 78.0555 25.4106 78.0555 25.9839C78.0555 26.5517 77.8512 27.0229 77.4424 27.3976C77.0393 27.7666 76.517 27.9511 75.8755 27.9511H74.3938V29.9948H73.4145Z" fill="#B9202B"/>
<path d="M82.2505 24.8684H80.8368V27.1421H82.2505C82.6308 27.1421 82.9374 27.0371 83.1701 26.827C83.4029 26.6113 83.5193 26.3388 83.5193 26.0095C83.5193 25.6802 83.4029 25.4077 83.1701 25.192C82.9374 24.9763 82.6308 24.8684 82.2505 24.8684ZM79.8575 29.9948V24.0339H82.3526C82.9941 24.0339 83.5108 24.2155 83.9025 24.5789C84.2999 24.9422 84.4986 25.4106 84.4986 25.9839C84.4986 26.5517 84.2942 27.0229 83.8855 27.3976C83.4824 27.7666 82.9601 27.9511 82.3186 27.9511H80.8368V29.9948H79.8575Z" fill="#B9202B"/>
<path d="M90.3881 29.9948H86.3006V24.0339H87.2799V29.1262H90.3881V29.9948Z" fill="#B9202B"/>
<path d="M92.0211 29.9948V24.0339H93.0345V29.9948H92.0211Z" fill="#B9202B"/>
<path d="M95.8065 29.2029C95.2161 28.6181 94.9209 27.8943 94.9209 27.0314C94.9209 26.1685 95.2218 25.4389 95.8235 24.8428C96.431 24.2467 97.1719 23.9487 98.0461 23.9487C98.33 23.9487 98.5997 23.9828 98.8551 24.0509C99.1106 24.1133 99.3206 24.19 99.4853 24.2808C99.6556 24.3716 99.8032 24.4625 99.9281 24.5533C100.059 24.6441 100.152 24.7208 100.209 24.7832L100.294 24.8854L99.579 25.5071C99.5619 25.49 99.5392 25.4673 99.5108 25.4389C99.4881 25.4049 99.4257 25.3509 99.3235 25.2771C99.227 25.2033 99.1219 25.1381 99.0084 25.0813C98.9005 25.0245 98.7586 24.9734 98.5826 24.928C98.4066 24.8769 98.2221 24.8514 98.0291 24.8514C97.4273 24.8514 96.9221 25.0586 96.5133 25.473C96.1046 25.8874 95.9002 26.4012 95.9002 27.0143C95.9002 27.6275 96.1046 28.1413 96.5133 28.5557C96.9221 28.9701 97.4273 29.1773 98.0291 29.1773C98.2278 29.1773 98.4208 29.1518 98.6082 29.1007C98.7955 29.0496 98.9488 28.99 99.068 28.9219C99.1929 28.8481 99.3008 28.7743 99.3916 28.7004C99.4881 28.6266 99.5563 28.567 99.596 28.5216C99.6414 28.4705 99.6641 28.4421 99.6641 28.4365L100.345 29.0581C100.323 29.0865 100.291 29.1234 100.252 29.1688C100.212 29.2142 100.118 29.2965 99.9707 29.4158C99.8288 29.5293 99.6755 29.6315 99.5108 29.7223C99.3462 29.8132 99.1276 29.8955 98.8551 29.9693C98.5883 30.0431 98.3073 30.08 98.0121 30.08C97.1378 30.08 96.4026 29.7876 95.8065 29.2029Z" fill="#B9202B"/>
<path d="M104.252 25.1579L103.204 27.7297H105.291L104.252 25.1579ZM104.771 24.0339L107.258 29.9948H106.185L105.58 28.5046H102.932L102.327 29.9948H101.297L103.792 24.0339H104.771Z" fill="#B9202B"/>
<path d="M112.044 24.8854H110.187V29.9948H109.208V24.8854H107.36V24.0339H112.044V24.8854Z" fill="#B9202B"/>
<path d="M113.677 29.9948V24.0339H114.69V29.9948H113.677Z" fill="#B9202B"/>
<path d="M119.685 29.1773C120.292 29.1773 120.798 28.9701 121.201 28.5557C121.609 28.1413 121.814 27.6275 121.814 27.0143C121.814 26.4012 121.609 25.8874 121.201 25.473C120.798 25.0586 120.292 24.8514 119.685 24.8514C119.083 24.8514 118.578 25.0586 118.169 25.473C117.76 25.8874 117.556 26.4012 117.556 27.0143C117.556 27.6275 117.76 28.1413 118.169 28.5557C118.578 28.9701 119.083 29.1773 119.685 29.1773ZM119.702 23.9487C120.582 23.9487 121.317 24.2411 121.907 24.8258C122.498 25.4106 122.793 26.1344 122.793 26.9973C122.793 27.8602 122.492 28.5897 121.89 29.1858C121.289 29.7819 120.548 30.08 119.668 30.08C118.794 30.08 118.058 29.7876 117.462 29.2029C116.872 28.6181 116.577 27.8943 116.577 27.0314C116.577 26.1685 116.878 25.4389 117.479 24.8428C118.087 24.2467 118.828 23.9487 119.702 23.9487Z" fill="#B9202B"/>
<path d="M128.882 29.9948L125.603 25.49V29.9948H124.641V24.0339H125.663L128.882 28.462V24.0339H129.836V29.9948H128.882Z" fill="#B9202B"/>
</svg>
