<svg width="200" height="166" viewBox="0 0 200 166" fill="none" xmlns="http://www.w3.org/2000/svg">
<path d="M75.3913 71.2539V71.0104H74.9044V70.5235H74.6609V67.8454H74.9044V64.9238H75.1478V62.0022H75.3913V59.0806H75.6348V56.4025H75.8782V53.4809H76.1217V50.5593H76.3652V47.6377H76.6086V44.7161H76.8521V42.038H77.0956V39.1164H77.339V36.1949H77.5825V33.2733H77.826V30.5951H78.0694V27.6736H78.3129V24.752H78.5564V21.8304H78.7998V19.1523H79.0433V18.6653H79.2868V18.4219H79.7737V18.1784H120.676V18.4219H120.919V18.6653H121.163V18.9088H121.406V20.6131H121.65V23.5346H121.893V26.4562H122.137V29.1344H122.38V32.0559H122.624V34.9775H122.867V37.8991H123.111V40.8207H123.354V43.4988H123.597V46.4204H123.841V49.342H124.084V52.2636H124.328V54.9417H124.571V57.8633H124.815V60.7849H125.058V63.7064H125.302V66.3846H125.545V69.3062H125.789V70.0365H125.545V70.7669H125.302V71.0104H125.058V71.2539H75.3913ZM88.5385 26.9432V27.1866H88.7819V26.9432H89.5123V26.6997H89.7558V26.4562H89.9992V26.2128H90.2427V25.9693H90.4862V24.752H90.2427V24.265H89.9992V24.0216H89.7558V23.7781H89.5123V23.5346H88.7819V23.2912H88.5385V23.5346H87.8081V23.7781H87.5646V24.0216H87.3211V24.265H87.0777V24.5085H86.8342V25.9693H87.0777V26.2128H87.3211V26.4562H87.5646V26.6997H87.8081V26.9432H88.5385ZM111.424 26.9432V27.1866H111.911V26.9432H112.398V26.6997H112.885V26.4562H113.128V25.9693H113.372V25.4824H113.615V24.9954H113.372V24.5085H113.128V24.0216H112.885V23.7781H112.398V23.5346H111.911V23.2912H111.424V23.5346H110.937V23.7781H110.45V24.0216H110.207V24.5085H109.963V24.9954H109.72V25.4824H109.963V25.9693H110.207V26.4562H110.45V26.6997H110.937V26.9432" fill="url(#paint0_linear_15_125)"/>
<path d="M75.3913 71.2539V71.0104H74.9044V70.5235H74.6609V67.8454H74.9044V64.9238H75.1478V62.0022H75.3913V59.0806H75.6348V56.4025H75.8782V53.4809H76.1217V50.5593H76.3652V47.6377H76.6086V44.7161H76.8521V42.038H77.0956V39.6034H81.478V39.3599H84.1561V39.1164H85.6169V38.873H87.3211V38.6295H89.0254V38.386H90.2427V38.1426H91.2166V37.8991H92.1904V37.6556H93.1643V37.4122H94.3816V37.1687H95.112V36.9252H95.8424V36.6818H96.5728V36.4383H97.5467V36.1948H98.2771V35.9514H99.0075V35.7079H99.7379V35.4645H100.468V35.221H100.955V34.9775H101.686V34.7341H102.173V34.4906H102.659V34.2471H103.39V34.0037H103.877V33.7602H104.364V33.5167H104.851V33.2733H105.581V33.0298H106.068V32.7863H106.555V32.5429H107.042V32.2994H107.529V32.0559H108.016V31.8125H108.259V31.569H108.746V31.3255H109.233V31.0821H109.72V30.8386H110.207V30.5951H110.694V30.3517H111.181V30.1082H111.424V29.8647H111.911V29.6213H112.155V29.3778H112.642V29.1343H112.885V28.8909H113.372V28.6474H113.859V28.404H114.102V28.1605H114.589V27.917H114.833V27.6736H115.32V27.4301H115.563V27.1866H116.05V26.9432H116.294V26.6997H116.78V26.4562H117.024V26.2128H117.267V25.9693H117.511V25.7258H117.998V25.4824H118.241V25.2389H118.485V24.9954H118.972V24.752H119.215V24.5085H119.459V24.265H119.702V24.0216H120.189V23.7781H120.432V23.5346H120.676V23.2912H120.919V23.0477H121.163V22.8042H121.65V23.5346H121.893V26.4562H122.137V29.1343H122.38V32.0559H122.624V34.9775H122.867V37.8991H123.111V40.8207H123.354V43.4988H123.597V46.4204H123.841V49.342H124.084V52.2636H124.328V54.9417H124.571V57.8633H124.815V60.7849H125.058V63.7064H125.302V66.3846H125.545V69.3062H125.789V70.0365H125.545V70.7669H125.302V71.0104H125.058V71.2539" fill="url(#paint1_linear_15_125)"/>
<path d="M75.3913 71.2539V71.0104H74.9044V70.5235H74.6609V67.8454H74.9044V64.9238H75.1478V62.0022H75.3913V59.0806H75.6348V56.4025H75.8782V53.7244H79.7737V53.4809H83.1822V53.2374H84.3995V52.994H85.6169V52.7505H86.8342V52.507H88.0515V52.2636H89.2688V52.0201H90.2427V51.7766H90.9731V51.5332H91.7035V51.2897H92.4339V51.0462H93.1643V50.8028H93.8947V50.5593H94.6251V50.3158H95.3555V50.0724H96.0859V49.8289H96.5728V49.5854H97.0597V49.342H97.5467V49.0985H98.0336V48.8551H98.5205V48.6116H99.0075V48.3681H99.4944V48.1247H99.9813V47.8812H100.468V47.6377H100.955V47.3943H101.442V47.1508H101.929V46.9073H102.416V46.6639H102.903V46.4204H103.146V46.1769H103.39V45.9335H103.877V45.69H104.12V45.4465H104.607V45.2031H104.851V44.9596H105.338V44.7161H105.581V44.4727H105.824V44.2292H106.311V43.9857H106.555V43.7423H107.042V43.4988H107.285V43.2553H107.529V43.0119H108.016V42.7684H108.259V42.5249H108.746V42.2815H108.99V42.038H109.233V41.7946H109.476V41.5511H109.72V41.3076H109.963V41.0642H110.207V40.8207H110.45V40.5772H110.694V40.3338H110.937V40.0903H111.181V39.8468H111.424V39.6034H111.668V39.3599H111.911V39.1164H112.155V38.873H112.398V38.6295H112.642V38.386H113.128V38.1426H113.372V37.8991H113.615V37.6556H113.859V37.1687H114.102V36.9252H114.346V36.6818H114.589V36.1948H114.833V35.9514H115.076V35.7079H115.32V35.4645H115.563V34.9775H115.807V34.7341H116.05V34.4906H116.294V34.2471H116.537V33.7602H116.78V33.5167H117.024V33.2733H117.267V33.0298H117.511V32.5429H117.754V32.2994H117.998V32.0559H118.241V31.569H118.485V31.0821H118.728V30.8386H118.972V30.3517H119.215V29.8647H119.459V29.6213H119.702V29.1343H119.945V28.8909H120.189V28.4039H120.432V27.917H120.676V27.6736H120.919V27.1866H121.163V26.6997H121.406V26.2128H121.65V25.7258H121.893V26.4562H122.137V29.1343H122.38V32.0559H122.624V34.9775H122.867V37.8991H123.111V40.5772H123.354V43.4988H123.597V46.4204H123.841V49.342H124.084V52.2636H124.328V54.9417H124.571V57.8633H124.815V60.7849H125.058V63.7064H125.302V66.3846H125.545V69.3062H125.789V70.0365H125.545V70.7669H125.302V71.0104H125.058V71.2539" fill="url(#paint2_linear_15_125)"/>
<path fill-rule="evenodd" clip-rule="evenodd" d="M132.5 75.7772H67.8127C66.9863 75.7772 66.3082 75.1001 66.3082 74.2727V32.0817C66.3082 31.2544 66.9863 30.5783 67.8127 30.5783H75.5361L75.966 25.5186H67.7443C64.5859 25.5186 62 28.1047 62 31.263V76.1196C62 79.2799 64.5859 81.8639 67.7443 81.8639H94.0006C93.7647 83.6357 93.0752 85.2714 92.0395 86.5126H82.5824C81.6237 86.5126 80.8391 87.2971 80.8391 88.2577C80.8391 89.2154 81.6237 90 82.5824 90H117.73C118.688 90 119.473 89.2154 119.473 88.2577C119.473 87.2971 118.688 86.5126 117.73 86.5126H108.956C107.92 85.2714 107.23 83.6357 106.996 81.8639H132.569C135.728 81.8639 138.313 79.2799 138.313 76.1196V31.263C138.313 28.1047 135.728 25.5186 132.569 25.5186H124.347L124.777 30.5783H132.5C133.327 30.5783 134.005 31.2544 134.005 32.0817V74.2727C134.005 75.1001 133.327 75.7772 132.5 75.7772Z" fill="#100F0D"/>
<path d="M110.606 21.6582V12.5587C110.606 9.68656 109.43 7.0732 107.534 5.17953C103.443 1.08639 96.8696 1.08639 92.7772 5.17953C90.8818 7.0732 89.7064 9.68656 89.7064 12.5587V21.6582V25.2513C89.7064 25.8322 89.2345 26.305 88.6517 26.305C88.0705 26.305 87.597 25.8322 87.597 25.2513V12.5587C87.597 9.1037 89.011 5.96422 91.286 3.6883C96.2027 -1.22946 104.109 -1.22946 109.026 3.6883C111.301 5.96422 112.716 9.1037 112.716 12.5587V25.2513C112.716 25.8322 112.242 26.305 111.66 26.305C111.077 26.305 110.606 25.8322 110.606 25.2513V21.6582Z" fill="#100F0D"/>
<path d="M83.1822 71.2539V71.0104H84.643V70.7669H85.6169V70.5235H86.3473V70.28H87.3211V70.0365H88.295V69.7931H89.0254V69.5496H89.7558V69.3062H90.4862V69.0627H90.9731V68.8192H91.7035V68.5758H92.4339V68.3323H93.1643V68.0888H93.6512V67.8454H94.1381V67.6019H94.6251V67.3584H95.112V67.115H95.5989V66.8715H96.0859V66.628H96.5728V66.3846H97.0597V66.1411H97.5467V65.8976H98.0336V65.6542H98.5205V65.4107H99.0075V65.1672H99.2509V64.9238H99.7379V64.6803H100.225V64.4368H100.468V64.1934H100.955V63.9499H101.199V63.7064H101.686V63.463H101.929V63.2195H102.416V62.976H102.659V62.7326H102.903V62.4891H103.39V62.2457H103.633V62.0022H103.877V61.7587H104.364V61.5153H104.607V61.2718H104.851V61.0283H105.094V60.7849H105.338V60.5414H105.824V60.2979H106.068V60.0545H106.311V59.811H106.555V59.5675H106.798V59.3241H107.042V59.0806H107.285V58.8371H107.529V58.5937H107.772V58.3502H108.016V58.1067H108.259V57.8633H108.503V57.6198H108.746V57.3763H108.99V57.1329H109.233V56.8894H109.476V56.6459H109.72V56.4025H109.963V56.159H110.207V55.9156H110.45V55.6721H110.694V55.4286H110.937V54.9417H111.181V54.6982H111.424V54.4548H111.668V53.9678H111.911V53.7244H112.155V53.4809H112.398V53.2374H112.642V52.7505H112.885V52.507H113.128V52.2636H113.372V51.7766H113.615V51.5332H113.859V51.0462H114.102V50.8028H114.346V50.3158H114.589V50.0724H114.833V49.5854H115.076V49.0985H115.32V48.8551H115.563V48.3681H115.807V48.1247H116.05V47.6377H116.294V47.1508H116.537V46.6639H116.78V46.1769H117.024V45.69H117.267V45.2031H117.511V44.7161H117.754V44.2292H117.998V43.7423H118.241V43.2553H118.485V42.525H118.728V41.7946H118.972V41.3076H119.215V40.5772H119.459V39.8468H119.702V39.1164H119.945V38.6295H120.189V37.6556H120.432V36.6818H120.676V35.7079H120.919V34.7341H121.163V33.7602H121.406V32.0559H121.65V30.5951H121.893V28.8909H122.137V29.1343H122.38V32.0559H122.624V34.9775H122.867V37.8991H123.111V40.8207H123.354V43.4988H123.597V46.4204H123.841V49.342H124.084V52.2636H124.328V54.9417H124.571V57.8633H124.815V60.7849H125.058V63.7064H125.302V66.3846H125.545V69.3062H125.789V70.0365H125.545V70.7669H125.302V71.0104H125.058V71.2539" fill="url(#paint3_linear_15_125)"/>
<path d="M5.76 140.376C7.728 142.368 10.164 143.364 13.068 143.364C15.972 143.364 18.408 142.368 20.376 140.376C22.344 138.384 23.328 135.912 23.328 132.96C23.328 130.032 22.344 127.572 20.376 125.58C18.408 123.588 15.972 122.592 13.068 122.592C10.164 122.592 7.728 123.588 5.76 125.58C3.792 127.572 2.808 130.032 2.808 132.96C2.808 135.912 3.792 138.384 5.76 140.376ZM3.78 123.78C6.324 121.26 9.432 120 13.104 120C16.776 120 19.86 121.248 22.356 123.744C24.852 126.216 26.1 129.276 26.1 132.924C26.1 136.572 24.828 139.656 22.284 142.176C19.764 144.672 16.668 145.92 12.996 145.92C9.324 145.92 6.24 144.684 3.744 142.212C1.248 139.74 0 136.68 0 133.032C0 129.384 1.26 126.3 3.78 123.78Z" fill="black"/>
<path d="M33.6586 136.632V145.56H30.9586V127.236H33.3346L33.5506 130.764C34.8946 128.172 37.1506 126.876 40.3186 126.876C42.3826 126.876 44.0986 127.596 45.4666 129.036C46.8346 130.476 47.5186 132.54 47.5186 135.228V145.56H44.8186V136.092C44.8186 133.836 44.3146 132.156 43.3066 131.052C42.3226 129.924 41.0746 129.36 39.5626 129.36C37.8346 129.36 36.4186 129.948 35.3146 131.124C34.2106 132.3 33.6586 134.136 33.6586 136.632Z" fill="black"/>
<path d="M53.1112 145.56V120.36H55.8833V145.56H53.1112Z" fill="black"/>
<path d="M62.0058 145.56V127.236H64.7778V145.56H62.0058ZM62.0058 120.576C62.3658 120.216 62.8218 120.036 63.3738 120.036C63.9258 120.036 64.3818 120.216 64.7418 120.576C65.1258 120.936 65.3178 121.392 65.3178 121.944C65.3178 122.496 65.1258 122.964 64.7418 123.348C64.3818 123.708 63.9258 123.888 63.3738 123.888C62.8218 123.888 62.3658 123.708 62.0058 123.348C61.6458 122.964 61.4658 122.496 61.4658 121.944C61.4658 121.392 61.6458 120.936 62.0058 120.576Z" fill="black"/>
<path d="M73.4203 136.632V145.56H70.7203V127.236H73.0963L73.3123 130.764C74.6563 128.172 76.9123 126.876 80.0803 126.876C82.1443 126.876 83.8603 127.596 85.2283 129.036C86.5963 130.476 87.2803 132.54 87.2803 135.228V145.56H84.5803V136.092C84.5803 133.836 84.0763 132.156 83.0683 131.052C82.0843 129.924 80.8363 129.36 79.3243 129.36C77.5963 129.36 76.1803 129.948 75.0763 131.124C73.9723 132.3 73.4203 134.136 73.4203 136.632Z" fill="black"/>
<path d="M109.937 136.56H94.133C94.157 138.552 94.829 140.22 96.149 141.564C97.493 142.884 99.173 143.544 101.189 143.544C102.005 143.544 102.785 143.436 103.529 143.22C104.273 142.98 104.873 142.692 105.329 142.356C105.809 142.02 106.217 141.684 106.553 141.348C106.913 141.012 107.165 140.736 107.309 140.52L107.525 140.16L109.253 141.564C109.181 141.684 109.073 141.84 108.929 142.032C108.809 142.224 108.509 142.572 108.029 143.076C107.549 143.58 107.021 144.024 106.445 144.408C105.869 144.792 105.089 145.14 104.105 145.452C103.145 145.764 102.125 145.92 101.045 145.92C98.309 145.92 96.017 145.02 94.169 143.22C92.345 141.396 91.433 139.14 91.433 136.452C91.433 133.764 92.369 131.496 94.241 129.648C96.113 127.8 98.405 126.876 101.117 126.876C103.565 126.876 105.653 127.764 107.381 129.54C109.133 131.292 110.009 133.404 110.009 135.876L109.937 136.56ZM101.081 129C99.353 129 97.853 129.528 96.581 130.584C95.333 131.64 94.565 132.996 94.277 134.652H107.345C107.105 133.044 106.385 131.7 105.185 130.62C103.985 129.54 102.617 129 101.081 129Z" fill="black"/>
<path d="M123.885 130.476C128.685 132.348 131.085 134.976 131.085 138.36C131.085 140.52 130.245 142.32 128.565 143.76C126.885 145.2 124.689 145.92 121.977 145.92C120.801 145.92 119.661 145.788 118.557 145.524C117.477 145.26 116.577 144.948 115.857 144.588C115.137 144.228 114.501 143.868 113.949 143.508C113.397 143.124 112.989 142.8 112.725 142.536L112.365 142.14L115.605 138.648C115.677 138.72 115.785 138.828 115.929 138.972C116.073 139.092 116.373 139.32 116.829 139.656C117.285 139.968 117.753 140.244 118.233 140.484C118.737 140.724 119.349 140.952 120.069 141.168C120.813 141.36 121.545 141.456 122.265 141.456C123.201 141.456 123.969 141.228 124.569 140.772C125.169 140.292 125.469 139.692 125.469 138.972C125.469 138.132 125.061 137.388 124.245 136.74C123.429 136.068 121.929 135.288 119.745 134.4C115.737 132.84 113.733 130.428 113.733 127.164C113.733 125.076 114.537 123.36 116.145 122.016C117.753 120.672 119.865 120 122.481 120C123.513 120 124.509 120.12 125.469 120.36C126.429 120.576 127.221 120.84 127.845 121.152C128.493 121.464 129.069 121.776 129.573 122.088C130.077 122.4 130.437 122.664 130.653 122.88L131.013 123.24L127.773 126.732C127.605 126.564 127.377 126.36 127.089 126.12C126.801 125.856 126.201 125.52 125.289 125.112C124.401 124.68 123.489 124.464 122.553 124.464C121.545 124.464 120.753 124.692 120.177 125.148C119.625 125.604 119.349 126.132 119.349 126.732C119.349 127.476 119.661 128.124 120.285 128.676C120.933 129.204 122.133 129.804 123.885 130.476Z" fill="black"/>
<path d="M134.864 145.56V120.36H140.084V129.576C141.404 127.608 143.324 126.624 145.844 126.624C147.86 126.624 149.528 127.308 150.848 128.676C152.192 130.02 152.864 131.88 152.864 134.256V145.56H147.644V135.912C147.644 134.424 147.308 133.308 146.636 132.564C145.964 131.796 145.088 131.412 144.008 131.412C142.856 131.412 141.908 131.784 141.164 132.528C140.444 133.272 140.084 134.376 140.084 135.84V145.56H134.864Z" fill="black"/>
<path d="M166.156 141.132C167.548 141.132 168.7 140.664 169.612 139.728C170.548 138.792 171.016 137.64 171.016 136.272C171.016 134.904 170.548 133.752 169.612 132.816C168.7 131.88 167.548 131.412 166.156 131.412C164.788 131.412 163.636 131.88 162.7 132.816C161.788 133.752 161.332 134.904 161.332 136.272C161.332 137.64 161.788 138.792 162.7 139.728C163.636 140.664 164.788 141.132 166.156 141.132ZM159.028 129.432C160.972 127.56 163.384 126.624 166.264 126.624C169.144 126.624 171.52 127.536 173.392 129.36C175.288 131.16 176.236 133.428 176.236 136.164C176.236 138.9 175.264 141.216 173.32 143.112C171.376 144.984 168.964 145.92 166.084 145.92C163.204 145.92 160.816 145.008 158.92 143.184C157.048 141.36 156.112 139.08 156.112 136.344C156.112 133.608 157.084 131.304 159.028 129.432Z" fill="black"/>
<path d="M189.517 141.132C190.909 141.132 192.061 140.664 192.973 139.728C193.909 138.792 194.377 137.64 194.377 136.272C194.377 134.904 193.909 133.752 192.973 132.816C192.061 131.88 190.909 131.412 189.517 131.412C188.149 131.412 186.997 131.88 186.061 132.816C185.149 133.752 184.693 134.904 184.693 136.272C184.693 137.64 185.149 138.792 186.061 139.728C186.997 140.664 188.149 141.132 189.517 141.132ZM179.653 151.32V126.984H184.009L184.441 129.756C185.953 127.668 188.005 126.624 190.597 126.624C193.069 126.624 195.181 127.548 196.933 129.396C198.709 131.22 199.597 133.476 199.597 136.164C199.597 138.876 198.697 141.18 196.897 143.076C195.097 144.972 192.937 145.92 190.417 145.92C188.113 145.92 186.265 145.104 184.873 143.472V151.32H179.653Z" fill="black"/>
<path d="M8.63 165.79H2V156.69H8.5V157.99H3.495V160.473H7.85V161.695H3.495V164.49H8.63V165.79Z" fill="#B9202B"/>
<path d="M12.1601 164.581C11.2588 163.688 10.8081 162.583 10.8081 161.266C10.8081 159.949 11.2675 158.835 12.1861 157.925C13.1135 157.015 14.2445 156.56 15.5791 156.56C16.0125 156.56 16.4241 156.612 16.8141 156.716C17.2041 156.811 17.5248 156.928 17.7761 157.067C18.0361 157.206 18.2615 157.344 18.4521 157.483C18.6515 157.622 18.7945 157.739 18.8811 157.834L19.0111 157.99L17.9191 158.939C17.8931 158.913 17.8585 158.878 17.8151 158.835C17.7805 158.783 17.6851 158.701 17.5291 158.588C17.3818 158.475 17.2215 158.376 17.0481 158.289C16.8835 158.202 16.6668 158.124 16.3981 158.055C16.1295 157.977 15.8478 157.938 15.5531 157.938C14.6345 157.938 13.8631 158.254 13.2391 158.887C12.6151 159.52 12.3031 160.304 12.3031 161.24C12.3031 162.176 12.6151 162.96 13.2391 163.593C13.8631 164.226 14.6345 164.542 15.5531 164.542C15.8565 164.542 16.1511 164.503 16.4371 164.425C16.7231 164.347 16.9571 164.256 17.1391 164.152C17.3298 164.039 17.4945 163.927 17.6331 163.814C17.7805 163.701 17.8845 163.61 17.9451 163.541C18.0145 163.463 18.0491 163.42 18.0491 163.411L19.0891 164.36C19.0545 164.403 19.0068 164.46 18.9461 164.529C18.8855 164.598 18.7425 164.724 18.5171 164.906C18.3005 165.079 18.0665 165.235 17.8151 165.374C17.5638 165.513 17.2301 165.638 16.8141 165.751C16.4068 165.864 15.9778 165.92 15.5271 165.92C14.1925 165.92 13.0701 165.474 12.1601 164.581Z" fill="#B9202B"/>
<path d="M25.4779 164.542C26.4053 164.542 27.1766 164.226 27.7919 163.593C28.4159 162.96 28.7279 162.176 28.7279 161.24C28.7279 160.304 28.4159 159.52 27.7919 158.887C27.1766 158.254 26.4053 157.938 25.4779 157.938C24.5593 157.938 23.7879 158.254 23.1639 158.887C22.5399 159.52 22.2279 160.304 22.2279 161.24C22.2279 162.176 22.5399 162.96 23.1639 163.593C23.7879 164.226 24.5593 164.542 25.4779 164.542ZM25.5039 156.56C26.8473 156.56 27.9696 157.006 28.8709 157.899C29.7723 158.792 30.2229 159.897 30.2229 161.214C30.2229 162.531 29.7636 163.645 28.8449 164.555C27.9263 165.465 26.7953 165.92 25.4519 165.92C24.1173 165.92 22.9949 165.474 22.0849 164.581C21.1836 163.688 20.7329 162.583 20.7329 161.266C20.7329 159.949 21.1923 158.835 22.1109 157.925C23.0383 157.015 24.1693 156.56 25.5039 156.56Z" fill="#B9202B"/>
<path d="M37.2689 164.36L34.4999 159.264V165.79H33.0439V156.69H34.5909L37.6979 162.488L40.8179 156.69H42.2739V165.79H40.8309V159.264L38.0619 164.36H37.2689Z" fill="#B9202B"/>
<path d="M49.8344 164.36L47.0654 159.264V165.79H45.6094V156.69H47.1564L50.2634 162.488L53.3834 156.69H54.8394V165.79H53.3964V159.264L50.6274 164.36H49.8344Z" fill="#B9202B"/>
<path d="M64.8048 165.79H58.1748V156.69H64.6748V157.99H59.6698V160.473H64.0248V161.695H59.6698V164.49H64.8048V165.79Z" fill="#B9202B"/>
<path d="M71.3739 157.964H69.1249V161.279H71.3739C71.9372 161.279 72.3836 161.123 72.7129 160.811C73.0509 160.499 73.2199 160.1 73.2199 159.615C73.2199 159.13 73.0509 158.735 72.7129 158.432C72.3836 158.12 71.9372 157.964 71.3739 157.964ZM67.6299 165.79V156.69H71.5559C72.4919 156.69 73.2502 156.959 73.8309 157.496C74.4202 158.025 74.7149 158.709 74.7149 159.55C74.7149 160.2 74.5242 160.772 74.1429 161.266C73.7702 161.751 73.2632 162.081 72.6219 162.254L75.1049 165.79H73.3499L71.0489 162.449H69.1249V165.79H67.6299Z" fill="#B9202B"/>
<path d="M78.5009 164.581C77.5996 163.688 77.1489 162.583 77.1489 161.266C77.1489 159.949 77.6083 158.835 78.5269 157.925C79.4543 157.015 80.5853 156.56 81.9199 156.56C82.3533 156.56 82.7649 156.612 83.1549 156.716C83.5449 156.811 83.8656 156.928 84.1169 157.067C84.3769 157.206 84.6023 157.344 84.7929 157.483C84.9923 157.622 85.1353 157.739 85.2219 157.834L85.3519 157.99L84.2599 158.939C84.2339 158.913 84.1993 158.878 84.1559 158.835C84.1213 158.783 84.0259 158.701 83.8699 158.588C83.7226 158.475 83.5623 158.376 83.3889 158.289C83.2243 158.202 83.0076 158.124 82.7389 158.055C82.4703 157.977 82.1886 157.938 81.8939 157.938C80.9753 157.938 80.2039 158.254 79.5799 158.887C78.9559 159.52 78.6439 160.304 78.6439 161.24C78.6439 162.176 78.9559 162.96 79.5799 163.593C80.2039 164.226 80.9753 164.542 81.8939 164.542C82.1973 164.542 82.4919 164.503 82.7779 164.425C83.0639 164.347 83.2979 164.256 83.4799 164.152C83.6706 164.039 83.8353 163.927 83.9739 163.814C84.1213 163.701 84.2253 163.61 84.2859 163.541C84.3553 163.463 84.3899 163.42 84.3899 163.411L85.4299 164.36C85.3953 164.403 85.3476 164.46 85.2869 164.529C85.2263 164.598 85.0833 164.724 84.8579 164.906C84.6413 165.079 84.4073 165.235 84.1559 165.374C83.9046 165.513 83.5709 165.638 83.1549 165.751C82.7476 165.864 82.3186 165.92 81.8679 165.92C80.5333 165.92 79.4109 165.474 78.5009 164.581Z" fill="#B9202B"/>
<path d="M94.6173 165.79H87.9873V156.69H94.4873V157.99H89.4823V160.473H93.8373V161.695H89.4823V164.49H94.6173V165.79Z" fill="#B9202B"/>
<path d="M105.251 158.406L103.652 162.332H106.837L105.251 158.406ZM106.044 156.69L109.84 165.79H108.202L107.279 163.515H103.236L102.313 165.79H100.74L104.549 156.69H106.044Z" fill="#B9202B"/>
<path d="M115.727 157.964H113.569V161.435H115.727C116.308 161.435 116.776 161.275 117.131 160.954C117.487 160.625 117.664 160.209 117.664 159.706C117.664 159.203 117.487 158.787 117.131 158.458C116.776 158.129 116.308 157.964 115.727 157.964ZM112.074 165.79V156.69H115.883C116.863 156.69 117.651 156.967 118.249 157.522C118.856 158.077 119.159 158.792 119.159 159.667C119.159 160.534 118.847 161.253 118.223 161.825C117.608 162.388 116.811 162.67 115.831 162.67H113.569V165.79H112.074Z" fill="#B9202B"/>
<path d="M125.563 157.964H123.405V161.435H125.563C126.144 161.435 126.612 161.275 126.967 160.954C127.322 160.625 127.5 160.209 127.5 159.706C127.5 159.203 127.322 158.787 126.967 158.458C126.612 158.129 126.144 157.964 125.563 157.964ZM121.91 165.79V156.69H125.719C126.698 156.69 127.487 156.967 128.085 157.522C128.692 158.077 128.995 158.792 128.995 159.667C128.995 160.534 128.683 161.253 128.059 161.825C127.444 162.388 126.646 162.67 125.667 162.67H123.405V165.79H121.91Z" fill="#B9202B"/>
<path d="M137.986 165.79H131.746V156.69H133.241V164.464H137.986V165.79Z" fill="#B9202B"/>
<path d="M140.479 165.79V156.69H142.026V165.79H140.479Z" fill="#B9202B"/>
<path d="M146.258 164.581C145.356 163.688 144.906 162.583 144.906 161.266C144.906 159.949 145.365 158.835 146.284 157.925C147.211 157.015 148.342 156.56 149.677 156.56C150.11 156.56 150.522 156.612 150.912 156.716C151.302 156.811 151.622 156.928 151.874 157.067C152.134 157.206 152.359 157.344 152.55 157.483C152.749 157.622 152.892 157.739 152.979 157.834L153.109 157.99L152.017 158.939C151.991 158.913 151.956 158.878 151.913 158.835C151.878 158.783 151.783 158.701 151.627 158.588C151.479 158.475 151.319 158.376 151.146 158.289C150.981 158.202 150.764 158.124 150.496 158.055C150.227 157.977 149.945 157.938 149.651 157.938C148.732 157.938 147.961 158.254 147.337 158.887C146.713 159.52 146.401 160.304 146.401 161.24C146.401 162.176 146.713 162.96 147.337 163.593C147.961 164.226 148.732 164.542 149.651 164.542C149.954 164.542 150.249 164.503 150.535 164.425C150.821 164.347 151.055 164.256 151.237 164.152C151.427 164.039 151.592 163.927 151.731 163.814C151.878 163.701 151.982 163.61 152.043 163.541C152.112 163.463 152.147 163.42 152.147 163.411L153.187 164.36C153.152 164.403 153.104 164.46 153.044 164.529C152.983 164.598 152.84 164.724 152.615 164.906C152.398 165.079 152.164 165.235 151.913 165.374C151.661 165.513 151.328 165.638 150.912 165.751C150.504 165.864 150.075 165.92 149.625 165.92C148.29 165.92 147.168 165.474 146.258 164.581Z" fill="#B9202B"/>
<path d="M159.15 158.406L157.551 162.332H160.736L159.15 158.406ZM159.943 156.69L163.739 165.79H162.101L161.178 163.515H157.135L156.212 165.79H154.639L158.448 156.69H159.943Z" fill="#B9202B"/>
<path d="M171.046 157.99H168.212V165.79H166.717V157.99H163.896V156.69H171.046V157.99Z" fill="#B9202B"/>
<path d="M173.539 165.79V156.69H175.086V165.79H173.539Z" fill="#B9202B"/>
<path d="M182.71 164.542C183.638 164.542 184.409 164.226 185.024 163.593C185.648 162.96 185.96 162.176 185.96 161.24C185.96 160.304 185.648 159.52 185.024 158.887C184.409 158.254 183.638 157.938 182.71 157.938C181.792 157.938 181.02 158.254 180.396 158.887C179.772 159.52 179.46 160.304 179.46 161.24C179.46 162.176 179.772 162.96 180.396 163.593C181.02 164.226 181.792 164.542 182.71 164.542ZM182.736 156.56C184.08 156.56 185.202 157.006 186.103 157.899C187.005 158.792 187.455 159.897 187.455 161.214C187.455 162.531 186.996 163.645 186.077 164.555C185.159 165.465 184.028 165.92 182.684 165.92C181.35 165.92 180.227 165.474 179.317 164.581C178.416 163.688 177.965 162.583 177.965 161.266C177.965 159.949 178.425 158.835 179.343 157.925C180.271 157.015 181.402 156.56 182.736 156.56Z" fill="#B9202B"/>
<path d="M196.75 165.79L191.745 158.913V165.79H190.276V156.69H191.836L196.75 163.45V156.69H198.206V165.79H196.75Z" fill="#B9202B"/>
<defs>
<linearGradient id="paint0_linear_15_125" x1="100.156" y1="53.0916" x2="100.156" y2="14.3998" gradientUnits="userSpaceOnUse">
<stop stop-color="#BA1C2B"/>
<stop offset="1" stop-color="#EF2D4D"/>
</linearGradient>
<linearGradient id="paint1_linear_15_125" x1="100.156" y1="57.93" x2="100.156" y2="22.7529" gradientUnits="userSpaceOnUse">
<stop stop-color="#BA1C2B"/>
<stop offset="1" stop-color="#EF2D4D"/>
</linearGradient>
<linearGradient id="paint2_linear_15_125" x1="100.156" y1="64.8529" x2="100.156" y2="25.522" gradientUnits="userSpaceOnUse">
<stop stop-color="#BA1C2B"/>
<stop offset="1" stop-color="#EF2D4D"/>
</linearGradient>
<linearGradient id="paint3_linear_15_125" x1="104.472" y1="73.0387" x2="104.472" y2="29.037" gradientUnits="userSpaceOnUse">
<stop stop-color="#BA1C2B"/>
<stop offset="1" stop-color="#EF2D4D"/>
</linearGradient>
</defs>
</svg>
