<svg width="200" height="26" viewBox="0 0 200 26" fill="none" xmlns="http://www.w3.org/2000/svg">
<g clip-path="url(#clip0_15_74)">
<rect width="200" height="25.3937" fill="white"/>
<path d="M79.3307 10.2362V25.3937H83.2677V10.2362H86.811C86.811 10.2362 86.811 10.2362 87.0079 10.2362C87.0079 10.2362 87.0079 10.2362 87.2047 10.2362C88.3858 10.2362 89.3701 9.25197 89.3701 7.87402C89.3701 6.49606 88.3858 5.51181 87.0079 5.51181H71.2598L72.2441 10.2362H79.3307Z" fill="#E62236"/>
<path d="M88.189 0H87.5984H87.4016H87.2047H69.8819L70.6693 3.54331H80.7087H87.2047H87.5984C90.1575 3.74016 92.126 5.70866 92.126 8.26772C92.126 10.2362 90.9449 12.0079 89.1732 12.5984C88.5827 12.7953 87.9921 12.9921 87.4016 12.9921H85.6299V16.3386V25.5906H87.4016H89.1732V16.1417C92.9134 15.3543 95.6693 12.0079 95.6693 8.07087C95.6693 3.93701 92.5197 0.393701 88.189 0Z" fill="#B9202C"/>
<path d="M199.213 16.3386H100.591V16.9291H199.213V16.3386Z" fill="#EB4356"/>
<path d="M109.628 4.88992H106.177V13.6H104.437V4.88992H101V3H109.628V4.88992Z" fill="black"/>
<path d="M118.977 13.6H111.249V3H118.905V4.80775H112.989V7.17016H116.44V8.97791H112.989V11.6074H118.977V13.6Z" fill="black"/>
<path d="M129.703 11.0938C129.703 12.0798 129.567 12.7441 129.297 13.0864C129.036 13.4288 128.552 13.6 127.847 13.6H123.38C122.675 13.6 122.187 13.4288 121.916 13.0864C121.655 12.7441 121.524 12.0798 121.524 11.0938V5.5062C121.524 4.52016 121.655 3.85594 121.916 3.51357C122.187 3.17119 122.675 3 123.38 3H127.847C128.736 3 129.287 3.29444 129.5 3.88333C129.635 4.22571 129.703 5.1022 129.703 6.51279L127.963 6.9031V4.88992H123.264V11.6074H127.963V9.32713L129.703 9.8407V11.0938Z" fill="black"/>
<path d="M141.717 13.6H139.962V9.03953H134.525V13.6H132.785V3H134.525V7.10853H139.962V3H141.717V13.6Z" fill="black"/>
<path d="M153.82 13.6H152.631L147.135 7.0469C146.903 6.773 146.695 6.4854 146.512 6.18411C146.56 6.86886 146.584 7.40982 146.584 7.80698V13.6H145.018V3H146.207L151.471 9.24496C151.848 9.6969 152.133 10.0804 152.326 10.3953C152.278 9.4093 152.254 8.79987 152.254 8.56705V3H153.82V13.6Z" fill="black"/>
<path d="M165.564 11.0938C165.564 12.0798 165.429 12.7441 165.158 13.0864C164.897 13.4288 164.414 13.6 163.708 13.6H158.981C158.275 13.6 157.787 13.4288 157.516 13.0864C157.255 12.7441 157.125 12.0798 157.125 11.0938V3H158.865V11.6074H163.824V3H165.564V11.0938Z" fill="black"/>
<path d="M176.968 7.41667C176.968 8.78618 176.408 9.47093 175.286 9.47093H170.588V13.6H168.877V3H175.286C176.408 3 176.968 3.68475 176.968 5.05426V7.41667ZM175.286 6.80039V5.67054C175.286 5.31447 175.214 5.08165 175.069 4.97209C174.962 4.87623 174.774 4.82829 174.503 4.82829H170.588V7.64264H174.503C174.774 7.64264 174.962 7.5947 175.069 7.49884C175.214 7.38928 175.286 7.15646 175.286 6.80039Z" fill="black"/>
<path d="M187.313 11.0938C187.313 12.0798 187.177 12.7441 186.907 13.0864C186.646 13.4288 186.162 13.6 185.457 13.6H180.73C180.024 13.6 179.536 13.4288 179.265 13.0864C179.004 12.7441 178.874 12.0798 178.874 11.0938V3H180.614V11.6074H185.573V3H187.313V11.0938Z" fill="black"/>
<path d="M199.5 13.6H197.006L193.99 9.59419H192.337V13.6H190.626V3H197.035C198.156 3 198.717 3.68475 198.717 5.05426V7.53992C198.717 8.56705 198.427 9.20388 197.847 9.45039C197.625 9.54625 197.025 9.59419 196.049 9.59419L199.5 13.6ZM197.035 6.94419V5.67054C197.035 5.31447 196.962 5.08165 196.817 4.97209C196.711 4.87623 196.523 4.82829 196.252 4.82829H192.337V7.78643H196.252C196.523 7.78643 196.711 7.7385 196.817 7.64264C196.962 7.53308 197.035 7.30026 197.035 6.94419Z" fill="black"/>
<path d="M6.16032 21.689C6.16032 22.4223 5.73498 22.789 4.88432 22.789H1.32032V25H0.022316V19.324H4.88432C5.73498 19.324 6.16032 19.6907 6.16032 20.424V21.689ZM4.88432 21.359V20.754C4.88432 20.5633 4.82932 20.4387 4.71932 20.38C4.63865 20.3287 4.49565 20.303 4.29032 20.303H1.32032V21.81H4.29032C4.49565 21.81 4.63865 21.7843 4.71932 21.733C4.82932 21.6743 4.88432 21.5497 4.88432 21.359Z" fill="black"/>
<path d="M14.5721 23.658C14.5721 24.186 14.4695 24.5417 14.2641 24.725C14.0661 24.9083 13.6995 25 13.1641 25H8.98412C8.44879 25 8.07845 24.9083 7.87312 24.725C7.67512 24.5417 7.57612 24.186 7.57612 23.658V20.666C7.57612 20.138 7.67512 19.7823 7.87312 19.599C8.07845 19.4157 8.44879 19.324 8.98412 19.324H13.1641C13.6995 19.324 14.0661 19.4157 14.2641 19.599C14.4695 19.7823 14.5721 20.138 14.5721 20.666V23.658ZM13.2521 23.933V20.336H8.89612V23.933H13.2521Z" fill="black"/>
<path d="M25.1593 19.324L22.9703 25H22.0793L20.5173 21.073L18.9333 25H18.0203L15.8313 19.324H17.1953L18.6363 23.13L20.1433 19.324H21.0673L22.6073 23.13L23.9823 19.324H25.1593Z" fill="black"/>
<path d="M32.4009 25H26.5379V19.324H32.3459V20.292H27.8579V21.557H30.4759V22.525H27.8579V23.933H32.4009V25Z" fill="black"/>
<path d="M41.0737 25H39.1817L36.8937 22.855H35.6397V25H34.3417V19.324H39.2037C40.0543 19.324 40.4797 19.6907 40.4797 20.424V21.755C40.4797 22.305 40.2597 22.646 39.8197 22.778C39.651 22.8293 39.1963 22.855 38.4557 22.855L41.0737 25ZM39.2037 21.436V20.754C39.2037 20.5633 39.1487 20.4387 39.0387 20.38C38.958 20.3287 38.815 20.303 38.6097 20.303H35.6397V21.887H38.6097C38.815 21.887 38.958 21.8613 39.0387 21.81C39.1487 21.7513 39.2037 21.6267 39.2037 21.436Z" fill="black"/>
<path d="M48.524 25H42.661V19.324H48.469V20.292H43.981V21.557H46.599V22.525H43.981V23.933H48.524V25Z" fill="black"/>
<path d="M57.3617 22.129C57.3617 23.229 56.9437 24.0393 56.1077 24.56C55.631 24.8533 54.8537 25 53.7757 25H50.4647V19.324H54.1167C55.0994 19.324 55.8694 19.544 56.4267 19.984C57.05 20.468 57.3617 21.183 57.3617 22.129ZM55.9977 22.107C55.9977 20.9263 55.3744 20.336 54.1277 20.336H51.7847V23.933H53.4897C54.2964 23.933 54.883 23.8303 55.2497 23.625C55.7484 23.3463 55.9977 22.8403 55.9977 22.107Z" fill="black"/>
<path d="M69.2141 23.889C69.2141 24.6297 68.6568 25 67.5421 25H63.0321V19.324H67.8941C68.7448 19.324 69.1701 19.6907 69.1701 20.424V21.117C69.1701 21.6743 68.8437 21.9933 68.1911 22.074C68.8731 22.162 69.2141 22.525 69.2141 23.163V23.889ZM67.9491 21.194V20.655C67.9491 20.3837 67.7474 20.248 67.3441 20.248H64.3301V21.601H67.3441C67.7474 21.601 67.9491 21.4653 67.9491 21.194ZM67.9821 23.471V23.042C67.9821 22.8293 67.9307 22.6937 67.8281 22.635C67.7327 22.569 67.5714 22.536 67.3441 22.536H64.3301V23.977H67.3441C67.5714 23.977 67.7327 23.9477 67.8281 23.889C67.9307 23.823 67.9821 23.6837 67.9821 23.471Z" fill="black"/>
<path d="M76.9134 19.324L73.9764 22.426V25H72.6454V22.459L69.6974 19.324H71.4574L73.4044 21.502L75.3624 19.324H76.9134Z" fill="black"/>
<path d="M102.533 23.7354V19.6316H101V19.0825H104.688V19.6316H103.149V23.7354H102.533Z" fill="black"/>
<path d="M105.832 23.7354V19.0825H107.895C108.31 19.0825 108.625 19.1248 108.841 19.2095C109.057 19.292 109.229 19.439 109.358 19.6506C109.487 19.8622 109.552 20.096 109.552 20.3521C109.552 20.6821 109.445 20.9604 109.231 21.1868C109.018 21.4132 108.688 21.557 108.241 21.6184C108.404 21.6967 108.528 21.7739 108.613 21.8501C108.792 22.0151 108.963 22.2214 109.124 22.469L109.933 23.7354H109.158L108.543 22.7673C108.363 22.488 108.215 22.2743 108.098 22.1262C107.982 21.9781 107.877 21.8744 107.784 21.8152C107.693 21.7559 107.6 21.7147 107.505 21.6914C107.435 21.6766 107.321 21.6692 107.162 21.6692H106.448V23.7354H105.832ZM106.448 21.136H107.771C108.053 21.136 108.273 21.1074 108.432 21.0503C108.59 20.991 108.711 20.8979 108.793 20.771C108.876 20.6419 108.917 20.5023 108.917 20.3521C108.917 20.132 108.837 19.9511 108.676 19.8093C108.517 19.6676 108.266 19.5967 107.921 19.5967H106.448V21.136Z" fill="black"/>
<path d="M110.509 23.7354L112.296 19.0825H112.959L114.864 23.7354H114.162L113.619 22.3262H111.674L111.163 23.7354H110.509ZM111.852 21.8247H113.429L112.943 20.5361C112.795 20.1447 112.685 19.8231 112.613 19.5713C112.554 19.8696 112.47 20.1659 112.363 20.46L111.852 21.8247Z" fill="black"/>
<path d="M115.849 23.7354V19.0825H116.481L118.925 22.7356V19.0825H119.515V23.7354H118.883L116.439 20.0791V23.7354H115.849Z" fill="black"/>
<path d="M120.843 22.2405L121.424 22.1897C121.452 22.4224 121.515 22.6139 121.615 22.7642C121.716 22.9123 121.873 23.0329 122.084 23.126C122.296 23.217 122.534 23.2625 122.798 23.2625C123.033 23.2625 123.241 23.2275 123.42 23.1577C123.6 23.0879 123.734 22.9927 123.82 22.8721C123.909 22.7493 123.954 22.616 123.954 22.4722C123.954 22.3262 123.911 22.1992 123.827 22.0913C123.742 21.9813 123.602 21.8892 123.408 21.8152C123.283 21.7665 123.007 21.6914 122.579 21.5898C122.152 21.4862 121.853 21.3888 121.681 21.2979C121.459 21.1815 121.293 21.0376 121.183 20.8662C121.075 20.6927 121.021 20.4991 121.021 20.2854C121.021 20.0505 121.088 19.8315 121.221 19.6284C121.354 19.4232 121.549 19.2677 121.805 19.1619C122.061 19.0561 122.346 19.0032 122.659 19.0032C123.004 19.0032 123.307 19.0592 123.57 19.1714C123.834 19.2814 124.037 19.4443 124.179 19.6602C124.321 19.876 124.397 20.1204 124.407 20.3933L123.817 20.4377C123.785 20.1436 123.677 19.9215 123.493 19.7712C123.311 19.621 123.042 19.5459 122.684 19.5459C122.312 19.5459 122.04 19.6147 121.868 19.7522C121.699 19.8876 121.615 20.0516 121.615 20.2441C121.615 20.4113 121.675 20.5488 121.795 20.6567C121.914 20.7646 122.223 20.8757 122.722 20.99C123.224 21.1021 123.567 21.2005 123.754 21.2852C124.024 21.41 124.224 21.5687 124.354 21.7612C124.483 21.9517 124.547 22.1717 124.547 22.4214C124.547 22.6689 124.476 22.9028 124.334 23.1228C124.193 23.3407 123.989 23.5111 123.722 23.6338C123.457 23.7544 123.159 23.8147 122.827 23.8147C122.406 23.8147 122.052 23.7533 121.767 23.6306C121.483 23.5079 121.26 23.3238 121.097 23.0784C120.936 22.8308 120.852 22.5515 120.843 22.2405Z" fill="black"/>
<path d="M125.92 23.7354V19.0825H129.059V19.6316H126.536V21.0725H128.719V21.6216H126.536V23.7354H125.92Z" fill="black"/>
<path d="M130.175 21.4692C130.175 20.6969 130.382 20.0929 130.797 19.657C131.211 19.219 131.747 19 132.403 19C132.832 19 133.219 19.1026 133.564 19.3079C133.909 19.5131 134.171 19.7998 134.351 20.168C134.533 20.534 134.624 20.9498 134.624 21.4153C134.624 21.8871 134.529 22.3092 134.339 22.6816C134.148 23.054 133.878 23.3365 133.529 23.5291C133.18 23.7195 132.804 23.8147 132.399 23.8147C131.961 23.8147 131.57 23.7089 131.225 23.4973C130.88 23.2857 130.619 22.9969 130.441 22.6309C130.263 22.2648 130.175 21.8776 130.175 21.4692ZM130.809 21.4788C130.809 22.0395 130.96 22.4817 131.26 22.8054C131.563 23.127 131.941 23.2878 132.396 23.2878C132.86 23.2878 133.24 23.1249 133.539 22.7991C133.839 22.4732 133.99 22.0109 133.99 21.4121C133.99 21.0334 133.925 20.7033 133.796 20.4219C133.669 20.1383 133.482 19.9194 133.234 19.7649C132.989 19.6083 132.713 19.53 132.406 19.53C131.97 19.53 131.594 19.6803 131.279 19.9807C130.966 20.2791 130.809 20.7784 130.809 21.4788Z" fill="black"/>
<path d="M135.93 23.7354V19.0825H137.993C138.408 19.0825 138.723 19.1248 138.939 19.2095C139.155 19.292 139.327 19.439 139.457 19.6506C139.586 19.8622 139.65 20.096 139.65 20.3521C139.65 20.6821 139.543 20.9604 139.33 21.1868C139.116 21.4132 138.786 21.557 138.339 21.6184C138.502 21.6967 138.626 21.7739 138.711 21.8501C138.891 22.0151 139.061 22.2214 139.222 22.469L140.031 23.7354H139.257L138.641 22.7673C138.461 22.488 138.313 22.2743 138.197 22.1262C138.08 21.9781 137.975 21.8744 137.882 21.8152C137.791 21.7559 137.698 21.7147 137.603 21.6914C137.533 21.6766 137.419 21.6692 137.26 21.6692H136.546V23.7354H135.93ZM136.546 21.136H137.87C138.151 21.136 138.371 21.1074 138.53 21.0503C138.688 20.991 138.809 20.8979 138.892 20.771C138.974 20.6419 139.015 20.5023 139.015 20.3521C139.015 20.132 138.935 19.9511 138.774 19.8093C138.615 19.6676 138.364 19.5967 138.019 19.5967H136.546V21.136Z" fill="black"/>
<path d="M141.099 23.7354V19.0825H142.026L143.127 22.377C143.229 22.6838 143.303 22.9133 143.349 23.0657C143.402 22.8964 143.485 22.6478 143.597 22.3198L144.711 19.0825H145.539V23.7354H144.946V19.8411L143.594 23.7354H143.038L141.693 19.7744V23.7354H141.099Z" fill="black"/>
<path d="M147.137 23.7354V19.0825H147.753V23.7354H147.137Z" fill="black"/>
<path d="M149.335 23.7354V19.0825H149.967L152.411 22.7356V19.0825H153.001V23.7354H152.37L149.926 20.0791V23.7354H149.335Z" fill="black"/>
<path d="M156.716 21.9104V21.3645L158.687 21.3613V23.0879C158.385 23.3291 158.073 23.5111 157.751 23.6338C157.429 23.7544 157.099 23.8147 156.761 23.8147C156.304 23.8147 155.888 23.7174 155.513 23.5227C155.141 23.3259 154.86 23.0424 154.669 22.6721C154.479 22.3018 154.384 21.8882 154.384 21.4312C154.384 20.9784 154.478 20.5562 154.666 20.1648C154.856 19.7712 155.129 19.4792 155.485 19.2888C155.84 19.0984 156.25 19.0032 156.713 19.0032C157.05 19.0032 157.353 19.0582 157.624 19.1682C157.897 19.2761 158.111 19.4274 158.265 19.6221C158.42 19.8167 158.537 20.0706 158.617 20.3838L158.062 20.5361C157.992 20.2992 157.905 20.113 157.802 19.9775C157.698 19.8421 157.55 19.7342 157.357 19.6538C157.165 19.5713 156.951 19.53 156.716 19.53C156.435 19.53 156.192 19.5734 155.986 19.6602C155.781 19.7448 155.615 19.8569 155.488 19.9966C155.363 20.1362 155.266 20.2896 155.196 20.4568C155.078 20.7445 155.018 21.0566 155.018 21.3931C155.018 21.8078 155.089 22.1548 155.231 22.4341C155.375 22.7134 155.583 22.9207 155.856 23.0562C156.129 23.1916 156.419 23.2593 156.726 23.2593C156.992 23.2593 157.253 23.2085 157.507 23.1069C157.76 23.0033 157.953 22.8932 158.084 22.7769V21.9104H156.716Z" fill="black"/>
<path d="M164.691 23.7354V19.0825H166.437C166.792 19.0825 167.077 19.1301 167.29 19.2253C167.506 19.3184 167.674 19.4634 167.795 19.6602C167.918 19.8548 167.979 20.059 167.979 20.2727C167.979 20.4716 167.925 20.6589 167.817 20.8345C167.709 21.0101 167.546 21.1519 167.328 21.2598C167.61 21.3423 167.826 21.483 167.976 21.6819C168.128 21.8808 168.204 22.1156 168.204 22.3865C168.204 22.6044 168.158 22.8075 168.065 22.9958C167.974 23.182 167.861 23.3259 167.725 23.4275C167.59 23.5291 167.419 23.6063 167.214 23.6592C167.011 23.71 166.761 23.7354 166.465 23.7354H164.691ZM165.307 21.0376H166.313C166.586 21.0376 166.781 21.0196 166.9 20.9836C167.056 20.9371 167.174 20.8599 167.252 20.752C167.333 20.644 167.373 20.5086 167.373 20.3457C167.373 20.1912 167.336 20.0558 167.262 19.9395C167.188 19.821 167.082 19.7406 166.944 19.6982C166.807 19.6538 166.571 19.6316 166.237 19.6316H165.307V21.0376ZM165.307 23.1863H166.465C166.664 23.1863 166.804 23.1789 166.884 23.1641C167.026 23.1387 167.144 23.0964 167.24 23.0371C167.335 22.9779 167.413 22.8922 167.474 22.78C167.536 22.6658 167.566 22.5346 167.566 22.3865C167.566 22.213 167.522 22.0627 167.433 21.9358C167.344 21.8067 167.22 21.7168 167.062 21.666C166.905 21.6131 166.679 21.5867 166.383 21.5867H165.307V23.1863Z" fill="black"/>
<path d="M172.605 19.0825H173.221V21.7708C173.221 22.2384 173.168 22.6097 173.062 22.8848C172.956 23.1598 172.765 23.3841 172.488 23.5576C172.212 23.729 171.851 23.8147 171.402 23.8147C170.966 23.8147 170.61 23.7396 170.333 23.5894C170.055 23.4391 169.858 23.2222 169.739 22.9387C169.621 22.6531 169.561 22.2638 169.561 21.7708V19.0825H170.177V21.7676C170.177 22.1717 170.214 22.4701 170.288 22.6626C170.364 22.853 170.493 23.0001 170.675 23.1038C170.859 23.2074 171.084 23.2593 171.348 23.2593C171.801 23.2593 172.124 23.1567 172.316 22.9514C172.509 22.7462 172.605 22.3516 172.605 21.7676V19.0825Z" fill="black"/>
<path d="M174.54 22.2405L175.12 22.1897C175.148 22.4224 175.211 22.6139 175.311 22.7642C175.412 22.9123 175.569 23.0329 175.781 23.126C175.992 23.217 176.23 23.2625 176.495 23.2625C176.729 23.2625 176.937 23.2275 177.117 23.1577C177.297 23.0879 177.43 22.9927 177.517 22.8721C177.605 22.7493 177.65 22.616 177.65 22.4722C177.65 22.3262 177.608 22.1992 177.523 22.0913C177.438 21.9813 177.299 21.8892 177.104 21.8152C176.979 21.7665 176.703 21.6914 176.276 21.5898C175.848 21.4862 175.549 21.3888 175.377 21.2979C175.155 21.1815 174.989 21.0376 174.879 20.8662C174.771 20.6927 174.717 20.4991 174.717 20.2854C174.717 20.0505 174.784 19.8315 174.917 19.6284C175.051 19.4232 175.245 19.2677 175.501 19.1619C175.757 19.0561 176.042 19.0032 176.355 19.0032C176.7 19.0032 177.004 19.0592 177.266 19.1714C177.53 19.2814 177.733 19.4443 177.875 19.6602C178.017 19.876 178.093 20.1204 178.104 20.3933L177.513 20.4377C177.482 20.1436 177.374 19.9215 177.19 19.7712C177.008 19.621 176.738 19.5459 176.38 19.5459C176.008 19.5459 175.736 19.6147 175.565 19.7522C175.395 19.8876 175.311 20.0516 175.311 20.2441C175.311 20.4113 175.371 20.5488 175.492 20.6567C175.61 20.7646 175.919 20.8757 176.418 20.99C176.92 21.1021 177.264 21.2005 177.45 21.2852C177.721 21.41 177.921 21.5687 178.05 21.7612C178.179 21.9517 178.243 22.1717 178.243 22.4214C178.243 22.6689 178.173 22.9028 178.031 23.1228C177.889 23.3407 177.685 23.5111 177.418 23.6338C177.154 23.7544 176.855 23.8147 176.523 23.8147C176.102 23.8147 175.749 23.7533 175.463 23.6306C175.18 23.5079 174.956 23.3238 174.793 23.0784C174.633 22.8308 174.548 22.5515 174.54 22.2405Z" fill="black"/>
<path d="M179.689 23.7354V19.0825H180.305V23.7354H179.689Z" fill="black"/>
<path d="M181.887 23.7354V19.0825H182.519L184.963 22.7356V19.0825H185.553V23.7354H184.921L182.478 20.0791V23.7354H181.887Z" fill="black"/>
<path d="M187.104 23.7354V19.0825H190.468V19.6316H187.719V21.0566H190.293V21.6025H187.719V23.1863H190.576V23.7354H187.104Z" fill="black"/>
<path d="M191.717 22.2405L192.298 22.1897C192.325 22.4224 192.389 22.6139 192.488 22.7642C192.59 22.9123 192.746 23.0329 192.958 23.126C193.169 23.217 193.407 23.2625 193.672 23.2625C193.907 23.2625 194.114 23.2275 194.294 23.1577C194.474 23.0879 194.607 22.9927 194.694 22.8721C194.783 22.7493 194.827 22.616 194.827 22.4722C194.827 22.3262 194.785 22.1992 194.7 22.0913C194.616 21.9813 194.476 21.8892 194.281 21.8152C194.156 21.7665 193.88 21.6914 193.453 21.5898C193.025 21.4862 192.726 21.3888 192.555 21.2979C192.333 21.1815 192.166 21.0376 192.056 20.8662C191.948 20.6927 191.895 20.4991 191.895 20.2854C191.895 20.0505 191.961 19.8315 192.094 19.6284C192.228 19.4232 192.422 19.2677 192.678 19.1619C192.934 19.0561 193.219 19.0032 193.532 19.0032C193.877 19.0032 194.181 19.0592 194.443 19.1714C194.708 19.2814 194.911 19.4443 195.052 19.6602C195.194 19.876 195.27 20.1204 195.281 20.3933L194.691 20.4377C194.659 20.1436 194.551 19.9215 194.367 19.7712C194.185 19.621 193.915 19.5459 193.558 19.5459C193.185 19.5459 192.913 19.6147 192.742 19.7522C192.573 19.8876 192.488 20.0516 192.488 20.2441C192.488 20.4113 192.548 20.5488 192.669 20.6567C192.787 20.7646 193.096 20.8757 193.596 20.99C194.097 21.1021 194.441 21.2005 194.627 21.2852C194.898 21.41 195.098 21.5687 195.227 21.7612C195.356 21.9517 195.421 22.1717 195.421 22.4214C195.421 22.6689 195.35 22.9028 195.208 23.1228C195.066 23.3407 194.862 23.5111 194.595 23.6338C194.331 23.7544 194.033 23.8147 193.7 23.8147C193.279 23.8147 192.926 23.7533 192.64 23.6306C192.357 23.5079 192.134 23.3238 191.971 23.0784C191.81 22.8308 191.725 22.5515 191.717 22.2405Z" fill="black"/>
<path d="M196.552 22.2405L197.133 22.1897C197.161 22.4224 197.224 22.6139 197.323 22.7642C197.425 22.9123 197.582 23.0329 197.793 23.126C198.005 23.217 198.243 23.2625 198.507 23.2625C198.742 23.2625 198.95 23.2275 199.129 23.1577C199.309 23.0879 199.443 22.9927 199.529 22.8721C199.618 22.7493 199.663 22.616 199.663 22.4722C199.663 22.3262 199.62 22.1992 199.536 22.0913C199.451 21.9813 199.311 21.8892 199.117 21.8152C198.992 21.7665 198.716 21.6914 198.288 21.5898C197.861 21.4862 197.562 21.3888 197.39 21.2979C197.168 21.1815 197.002 21.0376 196.892 20.8662C196.784 20.6927 196.73 20.4991 196.73 20.2854C196.73 20.0505 196.797 19.8315 196.93 19.6284C197.063 19.4232 197.258 19.2677 197.514 19.1619C197.77 19.0561 198.055 19.0032 198.368 19.0032C198.713 19.0032 199.016 19.0592 199.279 19.1714C199.543 19.2814 199.746 19.4443 199.888 19.6602C200.03 19.876 200.106 20.1204 200.116 20.3933L199.526 20.4377C199.494 20.1436 199.386 19.9215 199.202 19.7712C199.02 19.621 198.751 19.5459 198.393 19.5459C198.021 19.5459 197.749 19.6147 197.577 19.7522C197.408 19.8876 197.323 20.0516 197.323 20.2441C197.323 20.4113 197.384 20.5488 197.504 20.6567C197.623 20.7646 197.932 20.8757 198.431 20.99C198.933 21.1021 199.276 21.2005 199.463 21.2852C199.733 21.41 199.933 21.5687 200.062 21.7612C200.192 21.9517 200.256 22.1717 200.256 22.4214C200.256 22.6689 200.185 22.9028 200.043 23.1228C199.902 23.3407 199.698 23.5111 199.431 23.6338C199.166 23.7544 198.868 23.8147 198.536 23.8147C198.115 23.8147 197.761 23.7533 197.476 23.6306C197.192 23.5079 196.969 23.3238 196.806 23.0784C196.645 22.8308 196.561 22.5515 196.552 22.2405Z" fill="black"/>
</g>
<defs>
<clipPath id="clip0_15_74">
<rect width="200" height="25.3937" fill="white"/>
</clipPath>
</defs>
</svg>
