<svg width="23" height="18" viewBox="0 0 23 18" fill="none" xmlns="http://www.w3.org/2000/svg">
<path d="M19.405 6.1875C20.2255 6.1875 21.0124 5.86155 21.5926 5.28136C22.1728 4.70117 22.4988 3.91426 22.4988 3.09375C22.4988 2.27324 22.1728 1.48633 21.5926 0.906138C21.0124 0.325948 20.2255 0 19.405 0C18.5845 0 17.7976 0.325948 17.2174 0.906138C16.6372 1.48633 16.3113 2.27324 16.3113 3.09375C16.3113 3.91426 16.6372 4.70117 17.2174 5.28136C17.7976 5.86155 18.5845 6.1875 19.405 6.1875ZM15.4259 4.5C15.1706 3.77806 15.1169 3.00017 15.2706 2.25H1.12375L0.992129 2.25787C0.707396 2.29174 0.446341 2.43305 0.262302 2.65294C0.0782626 2.87282 -0.0148692 3.15468 0.00193504 3.44093C0.0187393 3.72718 0.144211 3.99621 0.352714 4.19305C0.561217 4.38989 0.837014 4.49968 1.12375 4.5H15.4259ZM21.3738 15.75H1.12375L0.992129 15.7579C0.707396 15.7917 0.446341 15.9331 0.262302 16.1529C0.0782626 16.3728 -0.0148692 16.6547 0.00193504 16.9409C0.0187393 17.2272 0.144211 17.4962 0.352714 17.693C0.561217 17.8899 0.837014 17.9997 1.12375 18H21.3738L21.5054 17.9921C21.7901 17.9583 22.0512 17.8169 22.2352 17.5971C22.4192 17.3772 22.5124 17.0953 22.4956 16.8091C22.4788 16.5228 22.3533 16.2538 22.1448 16.057C21.9363 15.8601 21.6605 15.7503 21.3738 15.75ZM1.12375 9L21.3738 8.99775C21.6605 8.99807 21.9363 9.10786 22.1448 9.3047C22.3533 9.50154 22.4788 9.77057 22.4956 10.0568C22.5124 10.3431 22.4192 10.6249 22.2352 10.8448C22.0512 11.0647 21.7901 11.206 21.5054 11.2399L21.3738 11.2478L1.12375 11.25C0.837014 11.2497 0.561217 11.1399 0.352714 10.943C0.144211 10.7462 0.0187393 10.4772 0.00193504 10.1909C-0.0148692 9.90468 0.0782626 9.62282 0.262302 9.40294C0.446341 9.18305 0.707396 9.04174 0.992129 9.00788L1.12375 9Z" fill="#89999F"/>
</svg>
