<svg width="18" height="18" viewBox="0 0 18 18" fill="none" xmlns="http://www.w3.org/2000/svg">
<path fill-rule="evenodd" clip-rule="evenodd" d="M8.25829 1.73859C6.52915 1.73859 4.87084 2.42548 3.64816 3.64816C2.42548 4.87084 1.73859 6.52915 1.73859 8.25829C1.73859 9.98742 2.42548 11.6457 3.64816 12.8684C4.87084 14.0911 6.52915 14.778 8.25829 14.778C9.98742 14.778 11.6457 14.0911 12.8684 12.8684C14.0911 11.6457 14.778 9.98742 14.778 8.25829C14.778 6.52915 14.0911 4.87084 12.8684 3.64816C11.6457 2.42548 9.98742 1.73859 8.25829 1.73859ZM2.4188 2.4188C3.96753 0.870067 6.06805 0 8.25829 0C10.4485 0 12.549 0.870067 14.0978 2.4188C15.6465 3.96753 16.5166 6.06805 16.5166 8.25829C16.5166 10.1554 15.8638 11.9852 14.6827 13.4474L18.0011 16.7717L16.7706 18L13.4539 14.6774C11.9906 15.8619 10.1582 16.5166 8.25829 16.5166C6.06805 16.5166 3.96753 15.6465 2.4188 14.0978C0.870067 12.549 0 10.4485 0 8.25829C0 6.06805 0.870067 3.96753 2.4188 2.4188Z" fill="#89999F"/>
</svg>
